# Blender v2.93.3 OBJ File: ''
# www.blender.org
mtllib player_mesh.mtl
o Cylinder_Cylinder.001
v 0.000000 0.000000 -1.122310
v 0.359872 0.000000 -1.065156
v 0.684517 0.000000 -0.899287
v 0.942156 0.000000 -0.640940
v 1.107571 0.000000 -0.315403
v 1.164569 0.000000 0.045456
v 1.107571 0.000000 0.406316
v 0.942156 0.000000 0.731852
v 0.684517 0.000000 0.990199
v 0.359872 0.000000 1.156068
v -0.000000 0.000000 1.213223
v -0.359872 0.000000 1.156068
v -0.684517 0.000000 0.990199
v -0.942156 0.000000 0.731852
v -1.107571 0.000000 0.406316
v -1.164569 0.000000 0.045456
v -1.107571 0.000000 -0.315404
v -0.942156 0.000000 -0.640939
v -0.684517 0.000000 -0.899287
v -0.359872 0.000000 -1.065156
v 0.836817 0.000000 -1.109486
v 0.000000 0.000000 -1.755655
v 1.151780 0.000000 -0.793658
v 1.353999 0.000000 -0.395692
v 1.423679 0.000000 0.045456
v 1.353999 0.000000 0.486605
v 1.151780 0.000000 0.884571
v 0.836817 0.000000 1.200398
v 0.439941 0.000000 1.403172
v -0.000000 0.000000 1.473043
v -0.439941 0.000000 1.403172
v -0.836817 0.000000 1.200398
v -1.151780 0.000000 0.884571
v -1.353999 0.000000 0.486605
v -1.423679 0.000000 0.045456
v -1.353999 0.000000 -0.395693
v -1.151780 0.000000 -0.793658
v -0.836817 0.000000 -1.109486
vt 0.250000 0.446320
vt 0.310666 0.436711
vt 0.250000 0.490000
vt 0.365394 0.408826
vt 0.324164 0.478254
vt 0.408826 0.365394
vt 0.444164 0.391068
vt 0.391068 0.444164
vt 0.436711 0.310666
vt 0.478254 0.324164
vt 0.446320 0.250000
vt 0.490000 0.250000
vt 0.436711 0.189334
vt 0.478254 0.175836
vt 0.408826 0.134606
vt 0.444164 0.108932
vt 0.365394 0.091174
vt 0.391068 0.055836
vt 0.310666 0.063289
vt 0.324164 0.021746
vt 0.250000 0.053680
vt 0.250000 0.010000
vt 0.189334 0.063289
vt 0.175836 0.021746
vt 0.134606 0.091174
vt 0.108932 0.055836
vt 0.091174 0.134606
vt 0.055836 0.108932
vt 0.063289 0.189334
vt 0.021746 0.175836
vt 0.053680 0.250000
vt 0.010000 0.250000
vt 0.063289 0.310666
vt 0.021746 0.324164
vt 0.091174 0.365394
vt 0.055836 0.391068
vt 0.134606 0.408826
vt 0.108932 0.444164
vt 0.189334 0.436712
vt 0.175836 0.478254
vn 0.0000 1.0000 0.0000
usemtl None
s off
f 1/1/1 2/2/1 22/3/1
f 2/2/1 3/4/1 21/5/1
f 3/4/1 4/6/1 23/7/1 21/8/1
f 4/6/1 5/9/1 24/10/1 23/7/1
f 5/9/1 6/11/1 25/12/1 24/10/1
f 6/11/1 7/13/1 26/14/1 25/12/1
f 7/13/1 8/15/1 27/16/1 26/14/1
f 8/15/1 9/17/1 28/18/1 27/16/1
f 9/17/1 10/19/1 29/20/1 28/18/1
f 10/19/1 11/21/1 30/22/1 29/20/1
f 11/21/1 12/23/1 31/24/1 30/22/1
f 12/23/1 13/25/1 32/26/1 31/24/1
f 13/25/1 14/27/1 33/28/1 32/26/1
f 14/27/1 15/29/1 34/30/1 33/28/1
f 15/29/1 16/31/1 35/32/1 34/30/1
f 16/31/1 17/33/1 36/34/1 35/32/1
f 17/33/1 18/35/1 37/36/1 36/34/1
f 18/35/1 19/37/1 38/38/1 37/36/1
f 19/37/1 20/39/1 38/38/1
f 20/39/1 22/3/1 38/40/1
f 22/3/1 20/39/1 1/1/1
f 22/3/1 2/2/1 21/5/1
