# Blender v2.93.3 OBJ File: ''
# www.blender.org
mtllib boss_mesh.mtl
o Text.003
v -0.643204 0.000000 1.163948
v 0.161390 0.000000 1.163948
v 0.300737 0.000000 1.157151
v 0.425147 0.000000 1.137651
v 0.535159 0.000000 1.106784
v 0.631310 0.000000 1.065889
v 0.714137 0.000000 1.016302
v 0.784177 0.000000 0.959361
v 0.841968 0.000000 0.896403
v 0.888047 0.000000 0.828764
v 0.922950 0.000000 0.757783
v 0.947216 0.000000 0.684796
v 0.961382 0.000000 0.611140
v 0.965985 0.000000 0.538153
v 0.961587 0.000000 0.460905
v 0.948570 0.000000 0.387514
v 0.927195 0.000000 0.318254
v 0.897725 0.000000 0.253399
v 0.860424 0.000000 0.193225
v 0.815553 0.000000 0.138005
v 0.763376 0.000000 0.088014
v 0.704154 0.000000 0.043527
v 0.638151 0.000000 0.004819
v 0.565630 0.000000 -0.027836
v 0.486852 0.000000 -0.054164
v 0.402081 0.000000 -0.073889
v 0.402081 0.000000 -0.080766
v 0.460401 0.000000 -0.106928
v 0.513337 0.000000 -0.135622
v 0.560948 0.000000 -0.166942
v 0.603293 0.000000 -0.200984
v 0.640434 0.000000 -0.237843
v 0.672428 0.000000 -0.277616
v 0.699337 0.000000 -0.320398
v 0.721219 0.000000 -0.366283
v 0.738135 0.000000 -0.415369
v 0.750143 0.000000 -0.467749
v 0.757305 0.000000 -0.523520
v 0.759678 0.000000 -0.582778
v 0.755124 0.000000 -0.656668
v 0.741292 0.000000 -0.729771
v 0.717934 0.000000 -0.801011
v 0.684797 0.000000 -0.869314
v 0.641631 0.000000 -0.933606
v 0.588186 0.000000 -0.992811
v 0.524211 0.000000 -1.045856
v 0.449455 0.000000 -1.091666
v 0.363667 0.000000 -1.129167
v 0.266597 0.000000 -1.157283
v 0.157994 0.000000 -1.174941
v 0.037607 0.000000 -1.181066
v -0.643204 0.000000 -1.181066
v -0.306237 0.000000 -0.878483
v 0.003222 0.000000 -0.878483
v 0.076281 0.000000 -0.875405
v 0.140983 0.000000 -0.866465
v 0.197709 0.000000 -0.852104
v 0.246842 0.000000 -0.832765
v 0.288764 0.000000 -0.808889
v 0.323857 0.000000 -0.780918
v 0.352502 0.000000 -0.749293
v 0.375083 0.000000 -0.714457
v 0.391981 0.000000 -0.676851
v 0.403577 0.000000 -0.636917
v 0.410255 0.000000 -0.595097
v 0.412396 0.000000 -0.551832
v 0.409024 0.000000 -0.491729
v 0.398881 0.000000 -0.436915
v 0.381934 0.000000 -0.387378
v 0.358145 0.000000 -0.343106
v 0.327480 0.000000 -0.304087
v 0.289902 0.000000 -0.270310
v 0.245375 0.000000 -0.241761
v 0.193865 0.000000 -0.218431
v 0.135334 0.000000 -0.200305
v 0.069747 0.000000 -0.187373
v -0.002932 0.000000 -0.179623
v -0.082739 0.000000 -0.177042
v -0.306237 0.000000 -0.177042
v -0.306237 0.000000 0.125540
v 0.099499 0.000000 0.125540
v 0.184112 0.000000 0.128641
v 0.260930 0.000000 0.137734
v 0.330035 0.000000 0.152511
v 0.391511 0.000000 0.172660
v 0.445442 0.000000 0.197871
v 0.491910 0.000000 0.227834
v 0.531001 0.000000 0.262238
v 0.562796 0.000000 0.300773
v 0.587381 0.000000 0.343129
v 0.604838 0.000000 0.388995
v 0.615250 0.000000 0.438060
v 0.618703 0.000000 0.490015
v 0.616376 0.000000 0.534159
v 0.608976 0.000000 0.578411
v 0.595869 0.000000 0.622018
v 0.576423 0.000000 0.664229
v 0.550003 0.000000 0.704290
v 0.515979 0.000000 0.741450
v 0.473717 0.000000 0.774957
v 0.422584 0.000000 0.804058
v 0.361948 0.000000 0.828002
v 0.291176 0.000000 0.846036
v 0.209634 0.000000 0.857408
v 0.116691 0.000000 0.861366
v -0.306237 0.000000 0.861366
vt 0.000000 0.000000
vt 0.495238 0.000000
vt 0.485714 0.000000
vt 0.476190 0.000000
vt 0.466667 0.000000
vt 0.457143 0.000000
vt 0.447619 0.000000
vt 0.438095 0.000000
vt 0.428571 0.000000
vt 0.419048 0.000000
vt 0.409524 0.000000
vt 0.504762 0.000000
vt 0.400000 0.000000
vt 0.742857 0.000000
vt 0.514286 0.000000
vt 0.523810 0.000000
vt 0.390476 0.000000
vt 0.533333 0.000000
vt 0.542857 0.000000
vt 0.552381 0.000000
vt 0.561905 0.000000
vt 0.380952 0.000000
vt 0.571429 0.000000
vt 0.580952 0.000000
vt 0.371429 0.000000
vt 0.590476 0.000000
vt 0.600000 0.000000
vt 0.361905 0.000000
vt 0.609524 0.000000
vt 0.619048 0.000000
vt 0.352381 0.000000
vt 0.628571 0.000000
vt 0.342857 0.000000
vt 0.638095 0.000000
vt 0.333333 0.000000
vt 0.647619 0.000000
vt 0.323810 0.000000
vt 0.657143 0.000000
vt 0.314286 0.000000
vt 0.666667 0.000000
vt 0.304762 0.000000
vt 0.676190 0.000000
vt 0.295238 0.000000
vt 0.685714 0.000000
vt 0.695238 0.000000
vt 0.285714 0.000000
vt 0.704762 0.000000
vt 0.276190 0.000000
vt 0.714286 0.000000
vt 0.723810 0.000000
vt 0.733333 0.000000
vt 0.752381 0.000000
vt 0.266667 0.000000
vt 0.257143 0.000000
vt 0.247619 0.000000
vt 0.238095 0.000000
vt 0.228571 0.000000
vt 0.219048 0.000000
vt 0.209524 0.000000
vt 0.200000 0.000000
vt 0.190476 0.000000
vt 0.761905 0.000000
vt 0.180952 0.000000
vt 1.000000 0.000000
vt 0.771429 0.000000
vt 0.780952 0.000000
vt 0.790476 0.000000
vt 0.171429 0.000000
vt 0.800000 0.000000
vt 0.809524 0.000000
vt 0.161905 0.000000
vt 0.819048 0.000000
vt 0.828571 0.000000
vt 0.152381 0.000000
vt 0.838095 0.000000
vt 0.847619 0.000000
vt 0.142857 0.000000
vt 0.857143 0.000000
vt 0.133333 0.000000
vt 0.866667 0.000000
vt 0.876190 0.000000
vt 0.123810 0.000000
vt 0.885714 0.000000
vt 0.895238 0.000000
vt 0.114286 0.000000
vt 0.904762 0.000000
vt 0.104762 0.000000
vt 0.914286 0.000000
vt 0.923810 0.000000
vt 0.095238 0.000000
vt 0.933333 0.000000
vt 0.942857 0.000000
vt 0.085714 0.000000
vt 0.952381 0.000000
vt 0.961905 0.000000
vt 0.971429 0.000000
vt 0.076190 0.000000
vt 0.980952 0.000000
vt 0.990476 0.000000
vt 0.066667 0.000000
vt 0.057143 0.000000
vt 0.047619 0.000000
vt 0.038095 0.000000
vt 0.028571 0.000000
vt 0.019048 0.000000
vt 0.009524 0.000000
vn 0.0000 1.0000 0.0000
usemtl None
s off
f 1/1/1 53/2/1 52/3/1
f 53/2/1 51/4/1 52/3/1
f 53/2/1 50/5/1 51/4/1
f 53/2/1 49/6/1 50/5/1
f 53/2/1 48/7/1 49/6/1
f 53/2/1 47/8/1 48/7/1
f 53/2/1 46/9/1 47/8/1
f 53/2/1 45/10/1 46/9/1
f 53/2/1 44/11/1 45/10/1
f 53/2/1 54/12/1 44/11/1
f 54/12/1 43/13/1 44/11/1
f 1/1/1 79/14/1 53/2/1
f 55/15/1 43/13/1 54/12/1
f 56/16/1 43/13/1 55/15/1
f 56/16/1 42/17/1 43/13/1
f 57/18/1 42/17/1 56/16/1
f 58/19/1 42/17/1 57/18/1
f 59/20/1 42/17/1 58/19/1
f 60/21/1 42/17/1 59/20/1
f 60/21/1 41/22/1 42/17/1
f 61/23/1 41/22/1 60/21/1
f 62/24/1 41/22/1 61/23/1
f 62/24/1 40/25/1 41/22/1
f 63/26/1 40/25/1 62/24/1
f 64/27/1 40/25/1 63/26/1
f 64/27/1 39/28/1 40/25/1
f 65/29/1 39/28/1 64/27/1
f 66/30/1 39/28/1 65/29/1
f 66/30/1 38/31/1 39/28/1
f 67/32/1 38/31/1 66/30/1
f 67/32/1 37/33/1 38/31/1
f 68/34/1 37/33/1 67/32/1
f 68/34/1 36/35/1 37/33/1
f 69/36/1 36/35/1 68/34/1
f 69/36/1 35/37/1 36/35/1
f 70/38/1 35/37/1 69/36/1
f 70/38/1 34/39/1 35/37/1
f 71/40/1 34/39/1 70/38/1
f 71/40/1 33/41/1 34/39/1
f 72/42/1 33/41/1 71/40/1
f 72/42/1 32/43/1 33/41/1
f 73/44/1 32/43/1 72/42/1
f 74/45/1 32/43/1 73/44/1
f 74/45/1 31/46/1 32/43/1
f 75/47/1 31/46/1 74/45/1
f 75/47/1 30/48/1 31/46/1
f 76/49/1 30/48/1 75/47/1
f 77/50/1 30/48/1 76/49/1
f 78/51/1 30/48/1 77/50/1
f 1/1/1 80/52/1 79/14/1
f 80/52/1 78/51/1 79/14/1
f 80/52/1 30/48/1 78/51/1
f 80/52/1 29/53/1 30/48/1
f 80/52/1 28/54/1 29/53/1
f 80/52/1 27/55/1 28/54/1
f 80/52/1 26/56/1 27/55/1
f 80/52/1 25/57/1 26/56/1
f 80/52/1 24/58/1 25/57/1
f 80/52/1 23/59/1 24/58/1
f 80/52/1 22/60/1 23/59/1
f 80/52/1 21/61/1 22/60/1
f 80/52/1 81/62/1 21/61/1
f 81/62/1 20/63/1 21/61/1
f 1/1/1 106/64/1 80/52/1
f 82/65/1 20/63/1 81/62/1
f 83/66/1 20/63/1 82/65/1
f 84/67/1 20/63/1 83/66/1
f 84/67/1 19/68/1 20/63/1
f 85/69/1 19/68/1 84/67/1
f 86/70/1 19/68/1 85/69/1
f 86/70/1 18/71/1 19/68/1
f 87/72/1 18/71/1 86/70/1
f 88/73/1 18/71/1 87/72/1
f 88/73/1 17/74/1 18/71/1
f 89/75/1 17/74/1 88/73/1
f 90/76/1 17/74/1 89/75/1
f 90/76/1 16/77/1 17/74/1
f 91/78/1 16/77/1 90/76/1
f 91/78/1 15/79/1 16/77/1
f 92/80/1 15/79/1 91/78/1
f 93/81/1 15/79/1 92/80/1
f 93/81/1 14/82/1 15/79/1
f 94/83/1 14/82/1 93/81/1
f 95/84/1 14/82/1 94/83/1
f 95/84/1 13/85/1 14/82/1
f 96/86/1 13/85/1 95/84/1
f 96/86/1 12/87/1 13/85/1
f 97/88/1 12/87/1 96/86/1
f 98/89/1 12/87/1 97/88/1
f 98/89/1 11/90/1 12/87/1
f 99/91/1 11/90/1 98/89/1
f 100/92/1 11/90/1 99/91/1
f 100/92/1 10/93/1 11/90/1
f 101/94/1 10/93/1 100/92/1
f 102/95/1 10/93/1 101/94/1
f 103/96/1 10/93/1 102/95/1
f 103/96/1 9/97/1 10/93/1
f 104/98/1 9/97/1 103/96/1
f 105/99/1 9/97/1 104/98/1
f 1/1/1 105/99/1 106/64/1
f 1/1/1 9/97/1 105/99/1
f 1/1/1 8/100/1 9/97/1
f 1/1/1 7/101/1 8/100/1
f 1/1/1 6/102/1 7/101/1
f 1/1/1 5/103/1 6/102/1
f 1/1/1 4/104/1 5/103/1
f 1/1/1 3/105/1 4/104/1
f 1/1/1 2/106/1 3/105/1
