# Blender v2.93.3 OBJ File: ''
# www.blender.org
mtllib dps_mesh.mtl
o Text.002
v -0.611146 0.000000 0.796001
v 0.000128 0.000000 0.796001
v 0.125114 0.000000 0.788263
v 0.241282 0.000000 0.765882
v 0.348243 0.000000 0.730113
v 0.445604 0.000000 0.682207
v 0.532975 0.000000 0.623417
v 0.609966 0.000000 0.554996
v 0.676184 0.000000 0.478197
v 0.731240 0.000000 0.394273
v 0.774741 0.000000 0.304476
v 0.806298 0.000000 0.210059
v 0.825519 0.000000 0.112274
v 0.832013 0.000000 0.012375
v 0.826658 0.000000 -0.080765
v 0.810437 0.000000 -0.174137
v 0.783108 0.000000 -0.266152
v 0.744432 0.000000 -0.355223
v 0.694171 0.000000 -0.439762
v 0.632085 0.000000 -0.518181
v 0.557933 0.000000 -0.588892
v 0.471478 0.000000 -0.650307
v 0.372480 0.000000 -0.700838
v 0.260698 0.000000 -0.738898
v 0.135895 0.000000 -0.762898
v -0.002170 0.000000 -0.771251
v -0.611146 0.000000 -0.771251
v -0.385940 0.000000 -0.569025
v -0.038938 0.000000 -0.569025
v 0.065836 0.000000 -0.563598
v 0.160787 0.000000 -0.547821
v 0.246052 0.000000 -0.522454
v 0.321766 0.000000 -0.488253
v 0.388064 0.000000 -0.445978
v 0.445083 0.000000 -0.396386
v 0.492957 0.000000 -0.340234
v 0.531823 0.000000 -0.278282
v 0.561815 0.000000 -0.211287
v 0.583071 0.000000 -0.140007
v 0.595725 0.000000 -0.065200
v 0.599912 0.000000 0.012375
v 0.597311 0.000000 0.064365
v 0.588869 0.000000 0.122468
v 0.573628 0.000000 0.184655
v 0.550632 0.000000 0.248902
v 0.518923 0.000000 0.313180
v 0.477542 0.000000 0.375463
v 0.425534 0.000000 0.433725
v 0.361939 0.000000 0.485938
v 0.285801 0.000000 0.530077
v 0.196162 0.000000 0.564114
v 0.092065 0.000000 0.586022
v -0.027448 0.000000 0.593775
v -0.385940 0.000000 0.593775
vt 0.000000 0.000000
vt 0.509434 0.000000
vt 0.490566 0.000000
vt 0.471698 0.000000
vt 0.452830 0.000000
vt 0.433962 0.000000
vt 0.415094 0.000000
vt 0.396226 0.000000
vt 0.377358 0.000000
vt 0.528302 0.000000
vt 0.547170 0.000000
vt 0.358491 0.000000
vt 1.000000 0.000000
vt 0.566038 0.000000
vt 0.584906 0.000000
vt 0.603774 0.000000
vt 0.339623 0.000000
vt 0.622642 0.000000
vt 0.641509 0.000000
vt 0.320755 0.000000
vt 0.660377 0.000000
vt 0.301887 0.000000
vt 0.679245 0.000000
vt 0.698113 0.000000
vt 0.283019 0.000000
vt 0.716981 0.000000
vt 0.264151 0.000000
vt 0.735849 0.000000
vt 0.245283 0.000000
vt 0.754717 0.000000
vt 0.773585 0.000000
vt 0.226415 0.000000
vt 0.792453 0.000000
vt 0.207547 0.000000
vt 0.811321 0.000000
vt 0.830189 0.000000
vt 0.188679 0.000000
vt 0.849057 0.000000
vt 0.169811 0.000000
vt 0.867925 0.000000
vt 0.886792 0.000000
vt 0.150943 0.000000
vt 0.905660 0.000000
vt 0.132075 0.000000
vt 0.924528 0.000000
vt 0.943396 0.000000
vt 0.113208 0.000000
vt 0.962264 0.000000
vt 0.981132 0.000000
vt 0.094340 0.000000
vt 0.075472 0.000000
vt 0.056604 0.000000
vt 0.037736 0.000000
vt 0.018868 0.000000
vn 0.0000 1.0000 0.0000
usemtl None
s off
f 1/1/1 28/2/1 27/3/1
f 28/2/1 26/4/1 27/3/1
f 28/2/1 25/5/1 26/4/1
f 28/2/1 24/6/1 25/5/1
f 28/2/1 23/7/1 24/6/1
f 28/2/1 22/8/1 23/7/1
f 28/2/1 21/9/1 22/8/1
f 28/2/1 29/10/1 21/9/1
f 29/10/1 30/11/1 21/9/1
f 30/11/1 20/12/1 21/9/1
f 1/1/1 54/13/1 28/2/1
f 31/14/1 20/12/1 30/11/1
f 32/15/1 20/12/1 31/14/1
f 33/16/1 20/12/1 32/15/1
f 33/16/1 19/17/1 20/12/1
f 34/18/1 19/17/1 33/16/1
f 35/19/1 19/17/1 34/18/1
f 35/19/1 18/20/1 19/17/1
f 36/21/1 18/20/1 35/19/1
f 36/21/1 17/22/1 18/20/1
f 37/23/1 17/22/1 36/21/1
f 38/24/1 17/22/1 37/23/1
f 38/24/1 16/25/1 17/22/1
f 39/26/1 16/25/1 38/24/1
f 39/26/1 15/27/1 16/25/1
f 40/28/1 15/27/1 39/26/1
f 40/28/1 14/29/1 15/27/1
f 41/30/1 14/29/1 40/28/1
f 42/31/1 14/29/1 41/30/1
f 42/31/1 13/32/1 14/29/1
f 43/33/1 13/32/1 42/31/1
f 43/33/1 12/34/1 13/32/1
f 44/35/1 12/34/1 43/33/1
f 45/36/1 12/34/1 44/35/1
f 45/36/1 11/37/1 12/34/1
f 46/38/1 11/37/1 45/36/1
f 46/38/1 10/39/1 11/37/1
f 47/40/1 10/39/1 46/38/1
f 48/41/1 10/39/1 47/40/1
f 48/41/1 9/42/1 10/39/1
f 49/43/1 9/42/1 48/41/1
f 49/43/1 8/44/1 9/42/1
f 50/45/1 8/44/1 49/43/1
f 51/46/1 8/44/1 50/45/1
f 51/46/1 7/47/1 8/44/1
f 52/48/1 7/47/1 51/46/1
f 53/49/1 7/47/1 52/48/1
f 1/1/1 53/49/1 54/13/1
f 1/1/1 7/47/1 53/49/1
f 1/1/1 6/50/1 7/47/1
f 1/1/1 5/51/1 6/50/1
f 1/1/1 4/52/1 5/51/1
f 1/1/1 3/53/1 4/52/1
f 1/1/1 2/54/1 3/53/1
