# Blender v2.93.3 OBJ File: ''
# www.blender.org
mtllib goToMarker_mesh.mtl
o Circle
v 0.000000 0.200000 -1.740106
v -0.339478 0.200000 -1.706671
v -0.665910 0.200000 -1.607649
v -0.966751 0.200000 -1.446846
v -1.230441 0.200000 -1.230441
v -1.446846 0.200000 -0.966751
v -1.607649 0.200000 -0.665910
v -1.706671 0.200000 -0.339478
v -1.740106 0.200000 0.000000
v -1.706671 0.200000 0.339478
v -1.607649 0.200000 0.665910
v -1.446846 0.200000 0.966751
v -1.230441 0.200000 1.230441
v -0.966751 0.200000 1.446846
v -0.665910 0.200000 1.607649
v -0.339478 0.200000 1.706671
v 0.000000 0.200000 1.740106
v 0.339478 0.200000 1.706671
v 0.665910 0.200000 1.607649
v 0.966751 0.200000 1.446845
v 1.230441 0.200000 1.230441
v 1.446845 0.200000 0.966752
v 1.607649 0.200000 0.665910
v 1.706671 0.200000 0.339478
v 1.740106 0.200000 -0.000000
v 1.706671 0.200000 -0.339478
v 1.607648 0.200000 -0.665910
v 1.446846 0.200000 -0.966751
v 1.230441 0.200000 -1.230441
v 0.966751 0.200000 -1.446846
v 0.665910 0.200000 -1.607649
v 0.339478 0.200000 -1.706671
v -0.000000 0.200000 -1.522580
v -0.297041 0.200000 -1.493324
v -0.582666 0.200000 -1.406680
v -0.845900 0.200000 -1.265979
v -1.076626 0.200000 -1.076626
v -1.265979 0.200000 -0.845900
v -1.406680 0.200000 -0.582666
v -1.493324 0.200000 -0.297041
v -1.522580 0.200000 0.000000
v -1.493324 0.200000 0.297041
v -1.406680 0.200000 0.582666
v -1.265979 0.200000 0.845900
v -1.076626 0.200000 1.076626
v -0.845900 0.200000 1.265979
v -0.582666 0.200000 1.406680
v -0.297041 0.200000 1.493324
v 0.000000 0.200000 1.522580
v 0.297040 0.200000 1.493324
v 0.582666 0.200000 1.406680
v 0.845900 0.200000 1.265979
v 1.076626 0.200000 1.076626
v 1.265979 0.200000 0.845900
v 1.406680 0.200000 0.582666
v 1.493324 0.200000 0.297041
v 1.522580 0.200000 -0.000000
v 1.493324 0.200000 -0.297041
v 1.406680 0.200000 -0.582666
v 1.265979 0.200000 -0.845900
v 1.076627 0.200000 -1.076626
v 0.845900 0.200000 -1.265979
v 0.582666 0.200000 -1.406680
v 0.297040 0.200000 -1.493324
vt 0.000000 0.000000
vt 0.000000 0.000000
vt 0.000000 0.000000
vt 0.000000 0.000000
vt 0.000000 0.000000
vt 0.000000 0.000000
vt 0.000000 0.000000
vt 0.000000 0.000000
vt 0.000000 0.000000
vt 0.000000 0.000000
vt 0.000000 0.000000
vt 0.000000 0.000000
vt 0.000000 0.000000
vt 0.000000 0.000000
vt 0.000000 0.000000
vt 0.000000 0.000000
vt 0.000000 0.000000
vt 0.000000 0.000000
vt 0.000000 0.000000
vt 0.000000 0.000000
vt 0.000000 0.000000
vt 0.000000 0.000000
vt 0.000000 0.000000
vt 0.000000 0.000000
vt 0.000000 0.000000
vt 0.000000 0.000000
vt 0.000000 0.000000
vt 0.000000 0.000000
vt 0.000000 0.000000
vt 0.000000 0.000000
vt 0.000000 0.000000
vt 0.000000 0.000000
vt 0.000000 0.000000
vt 0.000000 0.000000
vt 0.000000 0.000000
vt 0.000000 0.000000
vt 0.000000 0.000000
vt 0.000000 0.000000
vt 0.000000 0.000000
vt 0.000000 0.000000
vt 0.000000 0.000000
vt 0.000000 0.000000
vt 0.000000 0.000000
vt 0.000000 0.000000
vt 0.000000 0.000000
vt 0.000000 0.000000
vt 0.000000 0.000000
vt 0.000000 0.000000
vt 0.000000 0.000000
vt 0.000000 0.000000
vt 0.000000 0.000000
vt 0.000000 0.000000
vt 0.000000 0.000000
vt 0.000000 0.000000
vt 0.000000 0.000000
vt 0.000000 0.000000
vt 0.000000 0.000000
vt 0.000000 0.000000
vt 0.000000 0.000000
vt 0.000000 0.000000
vt 0.000000 0.000000
vt 0.000000 0.000000
vt 0.000000 0.000000
vt 0.000000 0.000000
vn 0.0000 1.0000 0.0000
usemtl None
s off
f 63/1/1 31/2/1 32/3/1
f 14/4/1 47/5/1 46/6/1
f 4/7/1 35/8/1 3/9/1
f 3/9/1 34/10/1 2/11/1
f 2/11/1 34/10/1 1/12/1
f 1/12/1 33/13/1 32/3/1
f 34/10/1 33/13/1 1/12/1
f 32/3/1 33/13/1 64/14/1
f 3/9/1 35/8/1 34/10/1
f 6/15/1 37/16/1 5/17/1
f 5/17/1 36/18/1 4/7/1
f 8/19/1 40/20/1 7/21/1
f 7/21/1 39/22/1 6/15/1
f 40/20/1 39/22/1 7/21/1
f 10/23/1 41/24/1 9/25/1
f 9/25/1 40/20/1 8/19/1
f 12/26/1 43/27/1 11/28/1
f 11/28/1 43/27/1 10/23/1
f 14/4/1 45/29/1 13/30/1
f 13/30/1 44/31/1 12/26/1
f 16/32/1 48/33/1 15/34/1
f 15/34/1 47/5/1 14/4/1
f 48/33/1 47/5/1 15/34/1
f 18/35/1 49/36/1 17/37/1
f 17/37/1 48/33/1 16/32/1
f 20/38/1 52/39/1 19/40/1
f 19/40/1 51/41/1 18/35/1
f 52/39/1 51/41/1 19/40/1
f 22/42/1 53/43/1 21/44/1
f 21/44/1 52/39/1 20/38/1
f 24/45/1 56/46/1 23/47/1
f 23/47/1 55/48/1 22/42/1
f 56/46/1 55/48/1 23/47/1
f 26/49/1 57/50/1 25/51/1
f 25/51/1 57/50/1 24/45/1
f 28/52/1 60/53/1 27/54/1
f 27/54/1 59/55/1 26/49/1
f 60/53/1 59/55/1 27/54/1
f 30/56/1 61/57/1 29/58/1
f 29/58/1 60/53/1 28/52/1
f 63/1/1 30/56/1 31/2/1
f 62/59/1 30/56/1 63/1/1
f 29/58/1 61/57/1 60/53/1
f 57/50/1 56/46/1 24/45/1
f 21/44/1 53/43/1 52/39/1
f 17/37/1 49/36/1 48/33/1
f 13/30/1 45/29/1 44/31/1
f 9/25/1 41/24/1 40/20/1
f 61/57/1 30/56/1 62/59/1
f 5/17/1 37/16/1 36/18/1
f 4/7/1 36/18/1 35/8/1
f 6/15/1 38/60/1 37/16/1
f 58/61/1 26/49/1 59/55/1
f 57/50/1 26/49/1 58/61/1
f 6/15/1 39/22/1 38/60/1
f 54/62/1 22/42/1 55/48/1
f 10/23/1 42/63/1 41/24/1
f 10/23/1 43/27/1 42/63/1
f 53/43/1 22/42/1 54/62/1
f 12/26/1 44/31/1 43/27/1
f 14/4/1 46/6/1 45/29/1
f 50/64/1 18/35/1 51/41/1
f 49/36/1 18/35/1 50/64/1
f 63/1/1 32/3/1 64/14/1
