# Blender v2.93.3 OBJ File: ''
# www.blender.org
mtllib X.mtl
o Text
v 1.024887 0.300000 -1.041098
v 0.660529 0.300000 -1.041098
v 0.002830 0.300000 -0.238274
v -0.657955 0.300000 -1.041098
v -1.025402 0.300000 -1.041098
v -0.182437 0.300000 -0.025217
v -1.090245 0.300000 1.064771
v -0.722799 0.300000 1.064771
v 0.002830 0.300000 0.194016
v 0.719196 0.300000 1.064771
v 1.083555 0.300000 1.064771
v 0.185010 0.300000 -0.025217
vt 0.454545 0.000000
vt 0.272727 0.000000
vt 0.363636 0.000000
vt 0.181818 0.000000
vt 0.000000 0.000000
vt 0.090909 0.000000
vt 1.000000 0.000000
vt 0.545455 0.000000
vt 0.727273 0.000000
vt 0.909091 0.000000
vt 0.636364 0.000000
vt 0.818182 0.000000
vn 0.0000 1.0000 -0.0000
usemtl None
s off
f 6/1/1 4/2/1 5/3/1
f 6/1/1 3/4/1 4/2/1
f 3/4/1 1/5/1 2/6/1
f 3/4/1 12/7/1 1/5/1
f 6/1/1 12/7/1 3/4/1
f 7/8/1 12/7/1 6/1/1
f 7/8/1 9/9/1 12/7/1
f 9/9/1 11/10/1 12/7/1
f 7/8/1 8/11/1 9/9/1
f 10/12/1 11/10/1 9/9/1
